<?xml version="1.0" encoding="UTF-8"?>

<svg aria-label="Hits: @Count" role="img" width="100" height="28"
     xmlns="http://www.w3.org/2000/svg">
  <title>Hits: @Count</title>
  <g shape-rendering="crispEdges">
    <rect width="30" height="28" fill="@EyeBg" />
    <rect x="30" width="70" height="28" fill="@TextBg" />
  </g>
  <g fill="#fff" font-family="Verdana,Geneva,DejaVu Sans,sans-serif" font-size="120" text-anchor="middle"
     text-rendering="geometricPrecision">
    <svg x="5" y="4" width="20" height="20" enable-background="new 0 0 512 512" viewBox="0 0 512 512"
         xmlns="http://www.w3.org/2000/svg">
      <switch>
        <g fill="@EyeColor">
          <path d="m234.67 170.67c-35.307 0-64 28.693-64 64s28.693 64 64 64 64-28.693 64-64-28.694-64-64-64z" />
          <path
            d="m234.67 74.667c-106.67 0-197.76 66.346-234.67 160 36.907 93.653 128 160 234.67 160 106.77 0 197.76-66.347 234.67-160-36.907-93.654-127.89-160-234.67-160zm0 266.67c-58.88 0-106.67-47.787-106.67-106.67s47.787-106.67 106.67-106.67 106.67 47.787 106.67 106.67-47.787 106.67-106.67 106.67z" />
        </g>
      </switch>
    </svg>
    <text transform="scale(.1)" x="650" y="180" fill="@TextColor">@Count</text>
  </g>
</svg>